<svg id="Calque_1" data-name="Calque 1" xmlns="http://www.w3.org/2000/svg" xmlns:xlink="http://www.w3.org/1999/xlink" viewBox="0 0 241.63 48.64"><defs><style>.cls-1{fill:url(#Dégradé_sans_nom_16);}.cls-2{fill:url(#Dégradé_sans_nom_16-2);}.cls-3{fill:url(#Dégradé_sans_nom_16-3);}.cls-4{fill:url(#Dégradé_sans_nom_16-4);}.cls-5{fill:#1d1d1b;}</style><linearGradient id="Dégradé_sans_nom_16" x1="57.06" y1="87.61" x2="82.61" y2="117.05" gradientUnits="userSpaceOnUse"><stop offset="0" stop-color="#e3ce65"/><stop offset="1" stop-color="#8e7d13"/></linearGradient><linearGradient id="Dégradé_sans_nom_16-2" x1="68.96" y1="78.29" x2="93.86" y2="106.98" xlink:href="#Dégradé_sans_nom_16"/><linearGradient id="Dégradé_sans_nom_16-3" x1="64.93" y1="82.22" x2="89.83" y2="110.91" xlink:href="#Dégradé_sans_nom_16"/><linearGradient id="Dégradé_sans_nom_16-4" x1="59.12" y1="85.71" x2="84.93" y2="115.45" xlink:href="#Dégradé_sans_nom_16"/></defs><path class="cls-1" d="M73.33,89.17a.46.46,0,0,0-.66-.46L59.06,94a1.11,1.11,0,0,0-.66,1v2.87a.45.45,0,0,0,.66.45l9.61-3.69a.45.45,0,0,1,.66.45v2.87a1.1,1.1,0,0,1-.66,1l-9.61,3.7a1.11,1.11,0,0,0-.66,1v2.87a.45.45,0,0,0,.66.45l13.61-5.23a1.1,1.1,0,0,0,.66-1Z" transform="translate(-50.4 -80.19)"/><path class="cls-2" d="M77.33,90.71a.46.46,0,0,1,.67-.46L87.61,94a1.11,1.11,0,0,1,.66,1v2.87a.45.45,0,0,1-.66.45L78,94.54a1.12,1.12,0,0,1-.67-1Z" transform="translate(-50.4 -80.19)"/><path class="cls-3" d="M77.33,99.28a.46.46,0,0,1,.67-.46l9.61,3.7a1.11,1.11,0,0,1,.66,1v2.87a.45.45,0,0,1-.66.45L78,103.11a1.12,1.12,0,0,1-.67-1Z" transform="translate(-50.4 -80.19)"/><path class="cls-4" d="M73.33,84.17,91,90.88a2.24,2.24,0,0,1,1.32,1.92v18.57A2.23,2.23,0,0,1,91,113.29L74.66,119.5a4.44,4.44,0,0,1-2.65,0l-16.29-6.21a2.21,2.21,0,0,1-1.32-1.92V92.8a2.22,2.22,0,0,1,1.32-1.92l17.61-6.71m1.33-3.77a4.29,4.29,0,0,0-2.65,0L51.72,88.13a2.2,2.2,0,0,0-1.32,1.92v24.07A2.2,2.2,0,0,0,51.72,116L72,123.78a4.44,4.44,0,0,0,2.65,0L95,116a2.22,2.22,0,0,0,1.32-1.92V90.05A2.22,2.22,0,0,0,95,88.13Z" transform="translate(-50.4 -80.19)"/><path class="cls-5" d="M110.11,122.48h4.21V123h-3.59v2.25h3.21v.55h-3.21v2.37h3.7v.56h-4.32Z" transform="translate(-50.4 -80.19)"/><path class="cls-5" d="M121.65,122.48h.61v6.29h-.66l-3.9-5.33v5.33h-.62v-6.29h.66l3.91,5.33Z" transform="translate(-50.4 -80.19)"/><path class="cls-5" d="M125.51,122.48h.62v2.88h3.94v-2.88h.62v6.29h-.62v-2.85h-3.94v2.85h-.62Z" transform="translate(-50.4 -80.19)"/><path class="cls-5" d="M138.7,128.77l-.74-1.68h-3.49l-.74,1.68h-.67l2.84-6.29h.64l2.84,6.29Zm-4-2.23h3l-1.51-3.41Z" transform="translate(-50.4 -80.19)"/><path class="cls-5" d="M146.32,122.48h.61v6.29h-.66l-3.9-5.33v5.33h-.62v-6.29h.66l3.91,5.33Z" transform="translate(-50.4 -80.19)"/><path class="cls-5" d="M154,123.18a2.64,2.64,0,0,0-1-.21,2.68,2.68,0,0,0-1.34.35,2.76,2.76,0,0,0-1,1,2.58,2.58,0,0,0-.36,1.33,2.52,2.52,0,0,0,.36,1.32,2.76,2.76,0,0,0,1,1A2.63,2.63,0,0,0,154,128a2.81,2.81,0,0,0,.88-.56l.38.41a4,4,0,0,1-1.07.68,3.28,3.28,0,0,1-2.88-.18,3.31,3.31,0,0,1-1.18-1.17,3.12,3.12,0,0,1-.44-1.61,3,3,0,0,1,.45-1.6,3.23,3.23,0,0,1,1.19-1.16,3.32,3.32,0,0,1,1.64-.43,3.21,3.21,0,0,1,1.23.24,3.34,3.34,0,0,1,1,.66l-.37.44A2.71,2.71,0,0,0,154,123.18Z" transform="translate(-50.4 -80.19)"/><path class="cls-5" d="M157.84,122.48h.62v6.29h-.62Z" transform="translate(-50.4 -80.19)"/><path class="cls-5" d="M166.27,122.48h.61v6.29h-.65l-3.9-5.33v5.33h-.62v-6.29h.66l3.9,5.33Z" transform="translate(-50.4 -80.19)"/><path class="cls-5" d="M174.66,125.69h.55V128a3.44,3.44,0,0,1-1.06.6,3.57,3.57,0,0,1-1.24.22,3.19,3.19,0,0,1-1.64-.43,3.29,3.29,0,0,1-1.2-1.17,3.12,3.12,0,0,1-.44-1.61,3.06,3.06,0,0,1,.44-1.6,3.34,3.34,0,0,1,1.2-1.16,3.42,3.42,0,0,1,1.66-.43,3.49,3.49,0,0,1,1.24.23,3.43,3.43,0,0,1,1.06.63l-.36.44a2.65,2.65,0,0,0-.89-.55,2.92,2.92,0,0,0-1-.2,2.61,2.61,0,0,0-1.34.36,2.7,2.7,0,0,0-1,1,2.52,2.52,0,0,0-.36,1.32,2.59,2.59,0,0,0,.36,1.34,2.73,2.73,0,0,0,1,1,2.61,2.61,0,0,0,1.34.35,3.13,3.13,0,0,0,.9-.14,3,3,0,0,0,.82-.42Z" transform="translate(-50.4 -80.19)"/><path class="cls-5" d="M186.77,122.48l-2.42,4v2.24h-.62v-2.24l-2.46-4h.65l2.12,3.38,2.08-3.38Z" transform="translate(-50.4 -80.19)"/><path class="cls-5" d="M193.17,122.85a3.31,3.31,0,0,1,1.19,1.16,3.06,3.06,0,0,1,.44,1.6,3.12,3.12,0,0,1-.44,1.61,3.34,3.34,0,0,1-1.19,1.17,3.26,3.26,0,0,1-1.66.43,3.27,3.27,0,0,1-2.84-1.6,3.12,3.12,0,0,1-.44-1.61,3.06,3.06,0,0,1,.44-1.6,3.23,3.23,0,0,1,1.19-1.16,3.33,3.33,0,0,1,1.65-.43A3.37,3.37,0,0,1,193.17,122.85Zm-3,.48a2.63,2.63,0,0,0-1,1,2.52,2.52,0,0,0-.36,1.32,2.58,2.58,0,0,0,.36,1.33,2.65,2.65,0,0,0,1,1,2.57,2.57,0,0,0,1.33.35,2.51,2.51,0,0,0,1.32-.35,2.65,2.65,0,0,0,1-1,2.58,2.58,0,0,0,.36-1.33,2.52,2.52,0,0,0-.36-1.32,2.65,2.65,0,0,0-2.29-1.31A2.67,2.67,0,0,0,190.19,123.33Z" transform="translate(-50.4 -80.19)"/><path class="cls-5" d="M198.57,127.72a2.24,2.24,0,0,0,2.92,0,2.05,2.05,0,0,0,.52-1.51v-3.74h.63v3.74a2.61,2.61,0,1,1-5.22,0v-3.74H198v3.74A2.06,2.06,0,0,0,198.57,127.72Z" transform="translate(-50.4 -80.19)"/><path class="cls-5" d="M209.94,128.77l-1.36-2.05h-2.17v2h-.62v-6.29h2.35A2.75,2.75,0,0,1,210,123a1.93,1.93,0,0,1,.65,1.55,2.17,2.17,0,0,1-.38,1.3,2,2,0,0,1-1.08.73l1.51,2.17Zm-1.8-2.59a2.13,2.13,0,0,0,1.39-.41,1.49,1.49,0,0,0,.48-1.19,1.42,1.42,0,0,0-.48-1.15,2.19,2.19,0,0,0-1.39-.39h-1.73v3.14Z" transform="translate(-50.4 -80.19)"/><path class="cls-5" d="M217.47,122.48h3.95V123h-3.33v2.42h3V126h-3v2.76h-.62Z" transform="translate(-50.4 -80.19)"/><path class="cls-5" d="M224.89,127.72a2.24,2.24,0,0,0,2.92,0,2.06,2.06,0,0,0,.53-1.51v-3.74H229v3.74a2.61,2.61,0,1,1-5.21,0v-3.74h.62v3.74A2.05,2.05,0,0,0,224.89,127.72Z" transform="translate(-50.4 -80.19)"/><path class="cls-5" d="M236.67,122.48h.62v6.29h-.66l-3.9-5.33v5.33h-.62v-6.29h.66l3.9,5.33Z" transform="translate(-50.4 -80.19)"/><path class="cls-5" d="M244.72,122.89a3.2,3.2,0,0,1,1.17,1.14,3.13,3.13,0,0,1,.42,1.6,3.1,3.1,0,0,1-.42,1.59,3.05,3.05,0,0,1-1.18,1.13,3.33,3.33,0,0,1-1.66.42h-2.51v-6.29h2.53A3.42,3.42,0,0,1,244.72,122.89Zm-.32,5a2.62,2.62,0,0,0,.94-.93,2.56,2.56,0,0,0,.34-1.31,2.51,2.51,0,0,0-.35-1.32,2.57,2.57,0,0,0-1-.93,2.6,2.6,0,0,0-1.32-.34h-1.89v5.17h1.92A2.59,2.59,0,0,0,244.4,127.87Z" transform="translate(-50.4 -80.19)"/><path class="cls-5" d="M257.55,128.77l-.74-1.68h-3.49l-.74,1.68h-.67l2.84-6.29h.64l2.84,6.29Zm-4-2.23h3l-1.51-3.41Z" transform="translate(-50.4 -80.19)"/><path class="cls-5" d="M264.77,122.89a3.2,3.2,0,0,1,1.17,1.14,3.14,3.14,0,0,1,.43,1.6,3.11,3.11,0,0,1-.43,1.59,3.05,3.05,0,0,1-1.18,1.13,3.29,3.29,0,0,1-1.65.42H260.6v-6.29h2.53A3.38,3.38,0,0,1,264.77,122.89Zm-.32,5a2.62,2.62,0,0,0,.94-.93,2.57,2.57,0,0,0,.35-1.31,2.52,2.52,0,0,0-.36-1.32,2.57,2.57,0,0,0-2.26-1.27h-1.9v5.17h1.92A2.56,2.56,0,0,0,264.45,127.87Z" transform="translate(-50.4 -80.19)"/><path class="cls-5" d="M268,122.48h.67l2.24,5.6,2.23-5.6h.66l-2.58,6.29h-.65Z" transform="translate(-50.4 -80.19)"/><path class="cls-5" d="M276.16,122.48h.62v6.29h-.62Z" transform="translate(-50.4 -80.19)"/><path class="cls-5" d="M283.84,123.18a2.6,2.6,0,0,0-1-.21,2.64,2.64,0,0,0-1.33.35,2.7,2.7,0,0,0-1,1,2.67,2.67,0,0,0-.35,1.33,2.61,2.61,0,0,0,.35,1.32,2.7,2.7,0,0,0,1,1,2.55,2.55,0,0,0,1.33.36,2.59,2.59,0,0,0,1-.21,2.81,2.81,0,0,0,.88-.56l.38.41a3.82,3.82,0,0,1-1.07.68,3.11,3.11,0,0,1-1.23.25,3.19,3.19,0,0,1-1.64-.43,3.34,3.34,0,0,1-1.19-1.17,3.11,3.11,0,0,1-.43-1.61A3,3,0,0,1,280,124a3.23,3.23,0,0,1,1.19-1.16,3.33,3.33,0,0,1,2.88-.19,3.41,3.41,0,0,1,1,.66l-.37.44A2.71,2.71,0,0,0,283.84,123.18Z" transform="translate(-50.4 -80.19)"/><path class="cls-5" d="M287.7,122.48h4.21V123h-3.59v2.25h3.22v.55h-3.22v2.37H292v.56H287.7Z" transform="translate(-50.4 -80.19)"/><path class="cls-5" d="M123.9,106.94a46.23,46.23,0,0,0-.88,5.55l-.22.25c-4.22-.15-7.44-.22-9.64-.22a36.6,36.6,0,0,0-4.85.31l.19-1.73a3.09,3.09,0,0,0,1.89-.75,2.94,2.94,0,0,0,.5-1.93l0-12.69a2.82,2.82,0,0,0-.22-1.36,1,1,0,0,0-.88-.34l-1,.06-.12-.19.25-1.6c2.45.06,4.11.09,5,.09,2.44,0,4.39,0,5.85-.08a32.5,32.5,0,0,0,3.67-.3l.15.25c-.16.78-.32,1.67-.45,2.68s-.23,1.93-.27,2.77l-2.11.16.06-1.32a2.67,2.67,0,0,0-.28-1.43,1.59,1.59,0,0,0-1.15-.57,20.78,20.78,0,0,0-3-.14,10,10,0,0,0-1.35.06.58.58,0,0,0-.49.3,2.2,2.2,0,0,0-.14.8l-.26,5.58,3.12,0c.46,0,1,0,1.75-.1s1.38-.13,2-.22l.16.22-.44,2.24c-2.21-.06-3.62-.09-4.25-.09a19.82,19.82,0,0,0-2.43.19l-.09,5.35a3.79,3.79,0,0,0,.14,1.26.8.8,0,0,0,.58.5,6.13,6.13,0,0,0,1.55.13,16.06,16.06,0,0,0,3.4-.25,2.27,2.27,0,0,0,1.48-1,7.44,7.44,0,0,0,.69-2.51l1.95-.19Z" transform="translate(-50.4 -80.19)"/><path class="cls-5" d="M138.81,99.32a1.18,1.18,0,0,0-.21-.8.8.8,0,0,0-.64-.24H137l-.06-.16.19-1.41,1.24.06c.6,0,1.2,0,1.81,0s1.07,0,1.71-.06,1-.08,1.22-.1L143,98.16a2.37,2.37,0,0,0-1.29.47,1.48,1.48,0,0,0-.41,1.1l-.35,13.2-2.11.31q-2.72-4-5.47-7.78t-2.75-3.71h-.22l0,8.22a1.38,1.38,0,0,0,.19.86.78.78,0,0,0,.66.24l1.16,0,.16.09-.28,1.48-1.26-.06q-.92,0-1.89,0c-.53,0-1.1,0-1.72.08l-1.21.11.19-1.51a2,2,0,0,0,1.15-.45,1.54,1.54,0,0,0,.39-1.1l.35-10a1.21,1.21,0,0,0-.45-1.09,4.19,4.19,0,0,0-1.7-.45L126,98l.23-1.3c.18,0,.57,0,1.16.08s1.11,0,1.58,0,1,0,1.41,0,.71,0,.85-.06q2.28,3.44,4.54,6.55t2.93,4h.22Z" transform="translate(-50.4 -80.19)"/><path class="cls-5" d="M149.05,107.21c-.85-2.89-1.64-5.38-2.35-7.48a2,2,0,0,0-2-1.48l-.09-.13.19-1.38,1.29,0q.94,0,1.89,0c.71,0,1.53,0,2.44-.09l1.78-.13.13.19-.1,1.35c-.63.07-1.09.12-1.37.18a1,1,0,0,0-.58.25.72.72,0,0,0-.16.52,39.38,39.38,0,0,0,1.12,4.72q1.11,4.2,1.53,5.71h.34c.51-1.2,1.23-3.15,2.18-5.86a31.51,31.51,0,0,0,1.41-4.6.66.66,0,0,0-.33-.63,2.43,2.43,0,0,0-1.15-.19h-1.1l-.09-.16.15-1.42c.23,0,.75.06,1.55.1s1.54.06,2.23.06,1.32,0,1.88,0l1.12,0-.22,1.51a1.74,1.74,0,0,0-.95.3,2.49,2.49,0,0,0-.57,1l-5,12.88-3.5.51C150.45,112,149.9,110.1,149.05,107.21Z" transform="translate(-50.4 -80.19)"/><path class="cls-5" d="M162.61,111.23a2.42,2.42,0,0,0,1.51-.58,2.32,2.32,0,0,0,.41-1.53l0-9.55a2.23,2.23,0,0,0-.17-1,.79.79,0,0,0-.71-.27l-.82,0-.13-.16.22-1.38,1.69,0c.83,0,1.73,0,2.69,0a75.43,75.43,0,0,0,7.85-.28l.15.19c0,.25-.13.8-.28,1.67a24.9,24.9,0,0,0-.31,2.74l-2,.12q0-.09,0-.39c0-.2,0-.41,0-.62a1.92,1.92,0,0,0-.22-1.07,1.3,1.3,0,0,0-.91-.42,15.9,15.9,0,0,0-2.33-.11,6,6,0,0,0-1,.06.56.56,0,0,0-.39.22,1.29,1.29,0,0,0-.09.57l-.19,4.06,2.45,0a15.87,15.87,0,0,0,1.66-.11l1.43-.14.16.22-.38,1.92-1.34,0c-.66,0-1.36,0-2.09,0a14.47,14.47,0,0,0-2,.16q-.06,2-.06,3.75a3.26,3.26,0,0,0,.11,1,.6.6,0,0,0,.46.39,5.23,5.23,0,0,0,1.19.1,13.2,13.2,0,0,0,2.63-.19,1.73,1.73,0,0,0,1.15-.76,5.81,5.81,0,0,0,.57-1.92l1.83-.13.19.19c-.07.25-.18.82-.34,1.7s-.27,1.81-.36,2.78l-.25.22c-.55,0-1.71-.06-3.48-.1s-3.28-.06-4.52-.06c-.92,0-1.8,0-2.62.11l-1.57.14Z" transform="translate(-50.4 -80.19)"/><path class="cls-5" d="M180.32,112.61a8.64,8.64,0,0,1-1.55-.41l-.72-.28-.19-.35c0-.1.06-.34.11-.72s.11-.89.17-1.54a18.09,18.09,0,0,0,.1-1.93l1.86-.15a7.6,7.6,0,0,0,.26,2.25,1.77,1.77,0,0,0,.9,1.07,4.39,4.39,0,0,0,1.83.3,3.79,3.79,0,0,0,2.17-.55,1.72,1.72,0,0,0,.82-1.5,1.68,1.68,0,0,0-.5-1.18,4.49,4.49,0,0,0-1.1-.83c-.4-.21-1.15-.57-2.24-1.08a13.22,13.22,0,0,1-3.06-1.9,3.22,3.22,0,0,1-1.07-2.5,4,4,0,0,1,.85-2.48,5.66,5.66,0,0,1,2.37-1.7,8.92,8.92,0,0,1,3.4-.61,16.23,16.23,0,0,1,2,.12c.63.09,1.14.18,1.52.27a5.68,5.68,0,0,1,.72.21l.16.31c0,.23-.14.76-.29,1.58s-.26,1.69-.34,2.61l-1.64.13-.22-.13a2.85,2.85,0,0,1,0-.33c0-.18,0-.39,0-.65a1.92,1.92,0,0,0-.6-1.6,3.4,3.4,0,0,0-2.08-.48,3.32,3.32,0,0,0-1.95.56,1.63,1.63,0,0,0-.79,1.37,1.77,1.77,0,0,0,.85,1.45,18.39,18.39,0,0,0,2.62,1.41,22.59,22.59,0,0,1,2.42,1.25,5.77,5.77,0,0,1,1.58,1.37,3,3,0,0,1,.66,2,4,4,0,0,1-.87,2.55,5.53,5.53,0,0,1-2.44,1.72,10,10,0,0,1-3.65.61A10.92,10.92,0,0,1,180.32,112.61Z" transform="translate(-50.4 -80.19)"/><path class="cls-5" d="M194.06,111.16a6,6,0,0,0,1.75-.31,1.12,1.12,0,0,0,.67-.71,5.79,5.79,0,0,0,.16-1.65v-10a11.11,11.11,0,0,0-2.25.24,1.4,1.4,0,0,0-.95.78,7.78,7.78,0,0,0-.49,2.19l-1.89.1c.05-.3.11-1,.19-2s.14-2,.16-3l.25-.25,2.46.25h8.06l2.49-.25.29.25c0,1,.07,2,.15,3s.14,1.64.16,1.93l-1.89.1a9.44,9.44,0,0,0-.5-2.27,1.36,1.36,0,0,0-.88-.8,9.82,9.82,0,0,0-2.12-.24c-.08,1.07-.16,2.68-.23,4.84s-.11,4.16-.11,6a2,2,0,0,0,.33,1.29A1.43,1.43,0,0,0,201,111c.35,0,.65,0,.89,0l.46,0,.13.13-.22,1.54c-.32,0-.91,0-1.77,0s-1.7,0-2.52,0c-.58,0-1.35,0-2.28.06s-1.55.08-1.84.1Z" transform="translate(-50.4 -80.19)"/><path class="cls-5" d="M207.87,112.66c-.87.1-1.43.16-1.7.21l.18-1.74a3.42,3.42,0,0,0,1.91-.78,2.69,2.69,0,0,0,.49-1.83l0-12.82a2.74,2.74,0,0,0-.22-1.33,1,1,0,0,0-.88-.34q-.31,0-.63,0l-.44,0-.13-.16.25-1.63c.3,0,.83,0,1.61,0s1.53,0,2.27,0,1.56,0,2.41-.06l1.78-.1a7.75,7.75,0,0,1,4.77,1.26,4.25,4.25,0,0,1,1.65,3.59,4.63,4.63,0,0,1-.93,2.81,6.36,6.36,0,0,1-2.6,2,7.05,7.05,0,0,1,3.41,1.75,4.07,4.07,0,0,1,1.26,3,5.22,5.22,0,0,1-1,3.13,6.87,6.87,0,0,1-2.79,2.23,9.35,9.35,0,0,1-3.92.81c-.3,0-.65,0-1.07-.06l-.92-.09c-1.36-.11-2.18-.16-2.45-.16A22.59,22.59,0,0,0,207.87,112.66Zm3.9-4a1.7,1.7,0,0,0,.77,1.57,5.13,5.13,0,0,0,2.57.47,3.73,3.73,0,0,0,2.73-1,3.48,3.48,0,0,0,1-2.63,3.39,3.39,0,0,0-1-2.48,5.3,5.3,0,0,0-2.85-1.36l-3.09.06Zm1.89-7.34c.82.08,1.35.12,1.58.12q0,.11.72-.33a4.21,4.21,0,0,0,1.31-1.26,3.71,3.71,0,0,0,.58-2.19A3.12,3.12,0,0,0,216.62,95a6.65,6.65,0,0,0-3.81-.88.51.51,0,0,0-.42.14,1.06,1.06,0,0,0-.14.56q-.19,3-.26,6.39C212.29,101.23,212.84,101.28,213.66,101.37Z" transform="translate(-50.4 -80.19)"/><path class="cls-5" d="M228.2,111.86a6.39,6.39,0,0,1-2.57-2.68,8.8,8.8,0,0,1-.89-4.06,9.14,9.14,0,0,1,1.08-4.48,7.85,7.85,0,0,1,3-3,8.84,8.84,0,0,1,4.41-1.08,7.31,7.31,0,0,1,5.45,2,7.6,7.6,0,0,1,2,5.58,9.08,9.08,0,0,1-1.1,4.49,7.92,7.92,0,0,1-3.06,3.07,8.81,8.81,0,0,1-4.44,1.1A7.83,7.83,0,0,1,228.2,111.86Zm7.81-2.43a6.26,6.26,0,0,0,1.2-4.06,8.43,8.43,0,0,0-1.26-5,4,4,0,0,0-3.46-1.76,3.79,3.79,0,0,0-3.14,1.46,6.46,6.46,0,0,0-1.15,4,8.62,8.62,0,0,0,1.23,5,4.15,4.15,0,0,0,6.58.3Z" transform="translate(-50.4 -80.19)"/><path class="cls-5" d="M249.63,112.55l.09-1.35a7.84,7.84,0,0,0,1.72-.29.61.61,0,0,0,.39-.63,2.56,2.56,0,0,0-.19-.91l-.6-2.05q-.66,0-2.49,0a25.33,25.33,0,0,0-2.55.16l-.75,2a4.42,4.42,0,0,0-.16.79.71.71,0,0,0,.3.66,2,2,0,0,0,1,.19h1.17l.12.16-.19,1.42c-.23,0-.73-.06-1.51-.1s-1.51-.06-2.2-.06-1.33,0-1.89,0l-1.14,0,.19-1.51a1.92,1.92,0,0,0,1-.46,3.35,3.35,0,0,0,.74-1.24l4.75-12.44,3.34-.41.29.09c.25.93.78,2.82,1.6,5.69s1.56,5.22,2.21,7.07a2.58,2.58,0,0,0,.74,1.28,2.71,2.71,0,0,0,1.43.45l.1.16-.19,1.32-1.22,0c-.59,0-1.21,0-1.84,0-.88,0-1.75,0-2.6.08l-1.62.11Zm-1.11-7a17.41,17.41,0,0,0,2.08-.1l-1.67-5.67h-.31l-2.05,5.77Z" transform="translate(-50.4 -80.19)"/><path class="cls-5" d="M268.2,110.63l-2.39-4.41h-1.89l-.06,2.93a4.61,4.61,0,0,0,.12,1.26.76.76,0,0,0,.49.5,4.46,4.46,0,0,0,1.24.16l.1.13-.28,1.41c-.3,0-.81,0-1.55,0l-2.08,0c-.61,0-1.22,0-1.84,0s-1,.06-1.21.08l.22-1.55a2.68,2.68,0,0,0,1.48-.53,2.09,2.09,0,0,0,.38-1.45l0-9.67a1.74,1.74,0,0,0-.19-1,.78.78,0,0,0-.66-.25l-.92,0-.12-.16.22-1.38,1.29,0,1.86,0c.67,0,1.38,0,2.13,0s1.26,0,1.56-.08a7.5,7.5,0,0,1,4.34,1.09,3.52,3.52,0,0,1,1.55,3,4.27,4.27,0,0,1-.93,2.66,7,7,0,0,1-2.67,2l2.43,3.66a6.25,6.25,0,0,0,1.43,1.62,2.56,2.56,0,0,0,1.56.49l.16.22-.19,1.17-2.8.25C269.94,112.9,269,112.14,268.2,110.63Zm.57-9.36a2.4,2.4,0,0,0-1-2.11,5.59,5.59,0,0,0-3.12-.69.45.45,0,0,0-.34.11.71.71,0,0,0-.1.46c-.14,2.41-.22,4.13-.22,5.16l2.4.26A3.25,3.25,0,0,0,268.77,101.27Z" transform="translate(-50.4 -80.19)"/><path class="cls-5" d="M281.2,112.63c-.85-.07-1.57-.11-2.16-.11a18.58,18.58,0,0,0-1.87.11l-1.34.14.16-1.54a2.67,2.67,0,0,0,1.52-.63,2.13,2.13,0,0,0,.4-1.45V99.57a2.27,2.27,0,0,0-.17-1,.74.74,0,0,0-.68-.28,4.36,4.36,0,0,0-.51,0l-.34,0-.13-.19.22-1.38,1.26,0q.92,0,1.83,0c.76,0,1.54,0,2.36,0s1.39,0,1.7-.08a9,9,0,0,1,6.16,2,6.83,6.83,0,0,1,2.25,5.41,8.89,8.89,0,0,1-1.16,4.52,8.18,8.18,0,0,1-3.2,3.11,9.34,9.34,0,0,1-4.61,1.12C282.61,112.76,282.05,112.7,281.2,112.63Zm.14-13.94a.67.67,0,0,0-.19.47c-.23,4.69-.34,8-.34,9.86a1.8,1.8,0,0,0,.5,1.5,3.5,3.5,0,0,0,2,.39,4.57,4.57,0,0,0,3.74-1.59,7.06,7.06,0,0,0,1.31-4.58,6.18,6.18,0,0,0-1.6-4.65,6.68,6.68,0,0,0-4.8-1.53A1.06,1.06,0,0,0,281.34,98.69Z" transform="translate(-50.4 -80.19)"/></svg>